<?xml version="1.0" encoding="UTF-8"?>
<svg width="15px" height="14px" viewBox="0 0 15 14" version="1.1" xmlns="http://www.w3.org/2000/svg" xmlns:xlink="http://www.w3.org/1999/xlink">
    <!-- Generator: Sketch 50.2 (55047) - http://www.bohemiancoding.com/sketch -->
    <title>ICON_SIZE</title>
    <desc>Created with Sketch.</desc>
    <defs>
        <path d="M4.67511382,4.5 L4.67511382,3.5 L14.2826294,3.5 C14.7428667,3.5 15.1159627,3.87309604 15.1159627,4.33333333 C15.1159627,4.39562742 15.1089778,4.45772509 15.0951388,4.51846253 L13.5407015,11.3406982 C13.4750385,11.628885 13.2187671,11.8333333 12.9231943,11.8333333 L4.45251903,11.8333333 C4.14579129,11.8333333 3.88314938,11.613535 3.82909711,11.3116075 L2.2516083,2.5 L1.33333333,2.5 L1.33333333,1.5 L2.55846227,1.5 C2.86519,1.5 3.12783192,1.71979831 3.18188418,2.02172588 L4.759373,10.8333333 L12.6306748,10.8333333 L14.0737164,4.5 L4.67511382,4.5 Z M6.33333333,14.6666667 C5.78104858,14.6666667 5.33333333,14.2189514 5.33333333,13.6666667 C5.33333333,13.1143819 5.78104858,12.6666667 6.33333333,12.6666667 C6.88561808,12.6666667 7.33333333,13.1143819 7.33333333,13.6666667 C7.33333333,14.2189514 6.88561808,14.6666667 6.33333333,14.6666667 Z M11,14.6666667 C10.4477153,14.6666667 10,14.2189514 10,13.6666667 C10,13.1143819 10.4477153,12.6666667 11,12.6666667 C11.5522847,12.6666667 12,13.1143819 12,13.6666667 C12,14.2189514 11.5522847,14.6666667 11,14.6666667 Z" id="path-1"></path>
    </defs>
    <g id="Symbols" stroke="none" stroke-width="1" fill="none" fill-rule="evenodd">
        <g id="ICON_SIZE" transform="translate(-1233.000000, -14.000000)">
            <g id="container" transform="translate(360.000000, 0.000000)">
                <g id="tools" transform="translate(872.000000, 8.000000)">
                    <g id="cart">
                        <g transform="translate(0.000000, 5.000000)">
                            <mask id="mask-2" fill="white">
                                <use xlink:href="#path-1"></use>
                            </mask>
                            <use id="Mask" fill="#6C7073" fill-rule="nonzero" xlink:href="#path-1"></use>
                            <g id="grey/7(secondary)" mask="url(#mask-2)" fill="#6C7073" fill-rule="evenodd">
                                <rect id="base" x="0" y="0" width="16" height="16"></rect>
                            </g>
                        </g>
                    </g>
                </g>
            </g>
        </g>
    </g>
</svg>
