<?xml version="1.0" encoding="UTF-8"?>
<svg width="60px" height="48px" viewBox="0 0 60 48" version="1.1" xmlns="http://www.w3.org/2000/svg" xmlns:xlink="http://www.w3.org/1999/xlink">
    <!-- Generator: Sketch 51.3 (57544) - http://www.bohemiancoding.com/sketch -->
    <title>developer-tools</title>
    <desc>Created with Sketch.</desc>
    <defs></defs>
    <g id="developer-tools" stroke="none" stroke-width="1" fill="none" fill-rule="evenodd">
        <path d="M38.4143207,23.496377 L38.4143207,24.0398547 L50.1700179,24.0398547 L50.1700179,34.0036232 L49.2657283,34.0036232 L49.2657283,35.8152178 L49.4917978,35.8152178 L49.4917978,38.5326087 L48.1353804,38.5326087 L48.1353804,35.8152178 L48.36145,35.8152178 L48.36145,34.0036232 L47.4571603,34.0036232 L47.4571603,25.8514494 L38.4143207,25.8514494 L38.4143207,26.3949271 C38.4143207,26.5951085 38.2524609,26.7572467 38.0526071,26.7572467 L22.4989342,26.7572467 C22.2990804,26.7572467 22.1372207,26.5951085 22.1372207,26.3949271 L22.1372207,23.496377 C22.1372207,23.2971018 22.2990804,23.1340585 22.4989342,23.1340585 L25.7543565,23.1340585 L25.7543565,20.4166665 L34.7971962,20.4166665 L34.7971962,23.1340585 L35.927544,23.1340585 L35.927544,11.5851451 L36.3796832,11.5851451 L36.3796832,23.1340585 L38.0526071,23.1340585 C38.2524609,23.1340585 38.4143207,23.2971018 38.4143207,23.496377 Z M26.6586348,23.1340585 L33.8929065,23.1340585 L33.8929065,21.3224639 L26.6586348,21.3224639 L26.6586348,23.1340585 Z M32.0843386,29.248188 C32.333919,29.248188 32.5364777,29.0452903 32.5364777,28.7952899 C32.5364777,28.5452895 32.333919,28.3423918 32.0843386,28.3423918 C31.8347582,28.3423918 31.6321995,28.5452895 31.6321995,28.7952899 C31.6321995,29.0452903 31.8347582,29.248188 32.0843386,29.248188 Z M32.0843386,27.8894926 C32.5834995,27.8894926 32.9886283,28.294384 32.9886283,28.7952899 C32.9886283,29.2952896 32.5834995,29.7010872 32.0843386,29.7010872 C31.5851777,29.7010872 31.1800603,29.2952896 31.1800603,28.7952899 C31.1800603,28.294384 31.5851777,27.8894926 32.0843386,27.8894926 Z M25.7543565,30.6068846 L34.7971962,30.6068846 L34.7971962,26.9836952 L25.7543565,26.9836952 L25.7543565,30.6068846 Z M56.1382864,21.3224639 L50.1474087,21.3224639 C50.1591641,21.3967388 50.1700179,21.4710149 50.1700179,21.5489135 L50.1700179,22.2282612 L56.1382864,22.2282612 C56.3381288,22.2282612 56.5,22.0661229 56.5,21.8659416 L56.5,21.6847823 C56.5,21.484601 56.3381288,21.3224639 56.1382864,21.3224639 Z M10.3299821,34.0036232 L11.2342717,34.0036232 L11.2342717,35.8152178 L11.0082022,35.8152178 L11.0082022,38.5326087 L12.3646196,38.5326087 L12.3646196,35.8152178 L12.13855,35.8152178 L12.13855,34.0036232 L13.0428397,34.0036232 L13.0428397,25.8514494 L22.0856793,25.8514494 L22.0856793,24.0398547 L10.3299821,24.0398547 L10.3299821,34.0036232 Z M49.9439484,21.3224639 C49.9439484,20.8224641 49.5388196,20.4166665 49.0396587,20.4166665 L47.6832299,20.4166665 C47.184069,20.4166665 46.7789516,20.8224641 46.7789516,21.3224639 L46.7789516,23.8134062 L49.9439484,23.8134062 L49.9439484,21.3224639 Z M36.1536136,11.3586954 C37.4024288,11.3586954 38.4143207,11.0543484 38.4143207,10.6793477 C38.4143207,10.3043482 37.4024288,10 36.1536136,10 C34.9047984,10 33.8929065,10.3043482 33.8929065,10.6793477 C33.8929065,11.0543484 34.9047984,11.3586954 36.1536136,11.3586954 Z M10.3299821,21.5489135 C10.3299821,21.4710149 10.3399342,21.3967388 10.3525913,21.3224639 L4.36171359,21.3224639 C4.1618712,21.3224639 4,21.484601 4,21.6847823 L4,21.8659416 C4,22.0661229 4.1618712,22.2282612 4.36171359,22.2282612 L10.3299821,22.2282612 L10.3299821,21.5489135 Z M13.9471179,22.2282612 L19.9153978,22.2282612 C20.1152402,22.2282612 20.2771114,22.0661229 20.2771114,21.8659416 L20.2771114,21.6847823 C20.2771114,21.484601 20.1152402,21.3224639 19.9153978,21.3224639 L13.9245087,21.3224639 C13.9371772,21.3967388 13.9471179,21.4710149 13.9471179,21.5489135 L13.9471179,22.2282612 Z M13.7210484,21.3224639 C13.7210484,20.8215579 13.315931,20.4166665 12.8167701,20.4166665 L11.4603413,20.4166665 C10.9611804,20.4166665 10.5560516,20.8215579 10.5560516,21.3224639 L10.5560516,23.8134062 L13.7210484,23.8134062 L13.7210484,21.3224639 Z M40.5846022,22.2282612 L46.5528821,22.2282612 L46.5528821,21.5489135 C46.5528821,21.4710149 46.5637359,21.3967388 46.5763929,21.3224639 L40.5846022,21.3224639 C40.3847598,21.3224639 40.2228886,21.484601 40.2228886,21.6847823 L40.2228886,21.8659416 C40.2228886,22.0661229 40.3847598,22.2282612 40.5846022,22.2282612 Z" id="Mask" fill="#3B3E40" fill-rule="nonzero"></path>
    </g>
</svg>