<?xml version="1.0" encoding="UTF-8"?>
<svg width="60px" height="48px" viewBox="0 0 60 48" version="1.1" xmlns="http://www.w3.org/2000/svg" xmlns:xlink="http://www.w3.org/1999/xlink">
    <!-- Generator: Sketch 51.3 (57544) - http://www.bohemiancoding.com/sketch -->
    <title>goggles</title>
    <desc>Created with Sketch.</desc>
    <defs></defs>
    <g id="goggles" stroke="none" stroke-width="1" fill="none" fill-rule="evenodd">
        <path d="M32.3779542,33.9427547 L32.207356,33.3732949 C32.0527039,32.8594602 31.9739635,32.3258266 31.9739635,31.7903073 L31.9739635,25.3244806 C31.9739635,24.7889613 32.0527039,24.2562718 32.207356,23.7414941 L32.3779542,23.1720332 C32.4266882,23.0108117 32.5785353,22.9005033 32.7510074,22.9005033 L31.8239903,22.9005033 C31.6646474,22.9005033 31.5212389,22.99007 31.4640546,23.1343212 C31.2156589,23.7556358 30.592336,25.6073259 30.592336,28.5573939 C30.592336,31.5074631 31.2156589,33.3591521 31.4640546,33.9814107 C31.5212389,34.1247179 31.6646474,34.2142858 31.8239903,34.2142858 L32.7510074,34.2142858 C32.5785353,34.2142858 32.4266882,34.1039762 32.3779542,33.9427547 Z M36.9886671,19.7826126 L33.9723492,22.3998685 L36.723406,22.3998685 L36.9886671,19.7826126 Z M46.9824696,32.7057815 C46.9824696,32.7576363 46.9402886,32.8000625 46.8887378,32.8000625 L46.6075425,32.8000625 C46.5559918,32.8000625 46.5138107,32.7576363 46.5138107,32.7057815 L46.5138107,31.9515288 C46.5138107,31.899674 46.5559918,31.8572478 46.6075425,31.8572478 L46.8887378,31.8572478 C46.9402886,31.8572478 46.9824696,31.899674 46.9824696,31.9515288 L46.9824696,32.7057815 Z M45.5764811,32.7057815 C45.5764811,32.7576363 45.5343,32.8000625 45.4827493,32.8000625 L45.2015421,32.8000625 C45.1499914,32.8000625 45.1078103,32.7576363 45.1078103,32.7057815 L45.1078103,31.9515288 C45.1078103,31.899674 45.1499914,31.8572478 45.2015421,31.8572478 L45.4827493,31.8572478 C45.5343,31.8572478 45.5764811,31.899674 45.5764811,31.9515288 L45.5764811,32.7057815 Z M44.1704807,32.7057815 C44.1704807,32.7576363 44.1283114,32.8000625 44.0767489,32.8000625 L43.7955535,32.8000625 C43.7440028,32.8000625 43.7018218,32.7576363 43.7018218,32.7057815 L43.7018218,31.9515288 C43.7018218,31.899674 43.7440028,31.8572478 43.7955535,31.8572478 L44.0767489,31.8572478 C44.1283114,31.8572478 44.1704807,31.899674 44.1704807,31.9515288 L44.1704807,32.7057815 Z M42.7644921,32.7057815 C42.7644921,32.7576363 42.722311,32.8000625 42.6707603,32.8000625 L42.389565,32.8000625 C42.3380025,32.8000625 42.2958332,32.7576363 42.2958332,32.7057815 L42.2958332,31.9515288 C42.2958332,31.899674 42.3380025,31.8572478 42.389565,31.8572478 L42.6707603,31.8572478 C42.722311,31.8572478 42.7644921,31.899674 42.7644921,31.9515288 L42.7644921,32.7057815 Z M39.9525032,33.2714711 C39.4350985,33.2714711 39.0151735,32.8490887 39.0151735,32.3286552 C39.0151735,31.8082216 39.4350985,31.3858405 39.9525032,31.3858405 C40.4699078,31.3858405 40.8898328,31.8082216 40.8898328,32.3286552 C40.8898328,32.8490887 40.4699078,33.2714711 39.9525032,33.2714711 Z M49.3782814,23.1343212 C49.3211089,22.99007 49.1777004,22.9005033 49.0183457,22.9005033 L36.968985,22.9005033 C36.7965246,22.9005033 36.6446775,23.0108117 36.5959317,23.1720332 L36.4253335,23.7414941 C36.2706814,24.2562718 36.191941,24.7889613 36.191941,25.3244806 L36.191941,31.7903073 C36.191941,32.3258266 36.2706814,32.8594602 36.4253335,33.3732949 L36.5959317,33.9427547 C36.6446775,34.1039762 36.7965246,34.2142858 36.968985,34.2142858 L49.0183457,34.2142858 C49.1777004,34.2142858 49.3211089,34.1247179 49.3782814,33.9814107 C49.6266771,33.3591521 50.25,31.5074631 50.25,28.5573939 C50.25,25.6073259 49.6266771,23.7556358 49.3782814,23.1343212 Z M36.1272728,33.9427547 L35.9566746,33.3732949 C35.8020107,32.8594602 35.7232821,32.3258266 35.7232821,31.7903073 L35.7232821,25.3244806 C35.7232821,24.7889613 35.8020107,24.2562718 35.9566746,23.7414941 L36.1272728,23.1720332 C36.1750757,23.0145831 36.3231632,22.908045 36.4918875,22.9033319 L36.6718553,22.9033319 L36.6727982,22.9005033 L33.2196782,22.9005033 C33.047206,22.9005033 32.8953589,23.0108117 32.8466132,23.1720332 L32.6760267,23.7414941 C32.5213628,24.2562718 32.4426224,24.7889613 32.4426224,25.3244806 L32.4426224,31.7903073 C32.4426224,32.3258266 32.5213628,32.8594602 32.6760267,33.3732949 L32.8466132,33.9427547 C32.8953589,34.1039762 33.047206,34.2142858 33.2196782,34.2142858 L36.500326,34.2142858 C36.3278539,34.2142858 36.1760067,34.1039762 36.1272728,33.9427547 Z M17.3900613,24.8097041 C17.1829156,24.449548 16.7067492,24.3354682 16.3271313,24.5560862 L9.40870486,28.5743654 C9.029087,28.7949833 8.88849522,29.265449 9.09564093,29.6265468 L11.1577638,33.2186734 C11.3649095,33.5797712 11.8401449,33.6929094 12.2206938,33.4722902 L17.3469492,30.4958222 C17.5662813,30.3685424 17.7593667,30.2035495 17.9187213,30.0083875 L19.0200845,28.6545047 C19.2244135,28.4037153 19.2572249,28.0643021 19.1044349,27.7965424 L17.3900613,24.8097041 Z M25.5729417,23.3426832 L25.0855317,23.6255274 C24.9964906,23.6773822 24.881191,23.6462703 24.8296403,23.5557595 L24.0797742,22.2499601 C24.0282235,22.1594506 24.059161,22.0444267 24.1482021,21.9925719 L24.6356121,21.7097277 C24.725596,21.657873 24.8399528,21.688042 24.8915035,21.7785528 L25.6413696,23.0843522 C25.6938631,23.1748617 25.6619946,23.2908285 25.5729417,23.3426832 Z M37.1920767,22.3998685 L46.8465568,22.3998685 C45.3637018,22.0133136 43.3484507,21.4523384 41.7390525,20.8715643 C40.1380928,20.2917331 39.1585939,19.6968161 38.6214953,19.3017767 C38.5521364,19.2508647 38.4771557,19.2188088 38.4012321,19.1895826 C38.4977689,19.1518694 38.584005,19.1188706 38.6552378,19.0915289 C38.7845978,19.0425027 38.8211453,18.8784527 38.7255396,18.7804002 C38.6168164,18.6691478 38.4677742,18.5182977 38.2915542,18.3429346 C38.2606285,18.3127643 38.2128257,18.3061643 38.1753353,18.3278488 L37.2239453,18.8793955 C37.1780164,18.9067372 37.119901,18.8916527 37.0936542,18.845455 L36.7149675,18.187369 C36.6896635,18.1411714 36.7055978,18.0827166 36.7515267,18.0563178 L37.407661,17.6754212 C37.4639025,17.6424223 37.4742032,17.5651116 37.4264003,17.5217413 C37.0055442,17.1399019 36.0682146,15.9217847 35.5995557,15.5738857 C34.7615796,14.9516271 33.8251928,14.5971293 33.555241,14.5019043 C33.5027474,14.4830483 33.4521278,14.491534 33.402451,14.5198185 L18.0461956,23.4379071 C17.6796952,23.6509834 17.552221,24.1186205 17.7603095,24.4825469 L19.8364928,28.0991866 C20.0455124,28.4631129 20.5113663,28.5847356 20.8778667,28.3726022 L30.5023521,22.7835937 C32.6450892,21.5390777 35.6998403,20.2587342 37.4817107,19.5497375 L37.1920767,22.3998685 Z M28.1852806,16.690179 C28.2893249,16.8702565 28.5180267,16.9324827 28.6979946,16.8278303 L33.2431082,14.187947 C33.2431082,14.187947 32.1464357,13.5468324 31.1069356,13.2668168 C30.2417817,13.0339417 29.3138217,13 29.3138217,13 L27.2029649,14.2247172 C27.024871,14.3293696 26.9630078,14.5594162 27.0661092,14.7404365 L28.1852806,16.690179 Z" id="Mask" fill="#3B3E40" fill-rule="nonzero"></path>
    </g>
</svg>