<?xml version="1.0" encoding="UTF-8"?>
<svg width="60px" height="48px" viewBox="0 0 60 48" version="1.1" xmlns="http://www.w3.org/2000/svg" xmlns:xlink="http://www.w3.org/1999/xlink">
    <!-- Generator: Sketch 51.3 (57544) - http://www.bohemiancoding.com/sketch -->
    <title>ronin</title>
    <desc>Created with Sketch.</desc>
    <defs></defs>
    <g id="ronin" stroke="none" stroke-width="1" fill="none" fill-rule="evenodd">
        <path d="M20.1440399,1.96648045 L24.7909844,1.96648045 L24.7909844,5.89944134 L20.1440399,5.89944134 C20.0365793,5.89944134 19.9504172,5.81094972 19.9504172,5.7027933 L19.9504172,2.16312849 C19.9504172,2.05497207 20.0365793,1.96648045 20.1440399,1.96648045 M23.8227742,1.81521272 L25.6379869,1.81521272 L25.6379869,0 L23.8227742,0 L23.8227742,1.81521272 Z M25.529171,10.4652156 L23.9530823,8.06414302 C23.8678883,7.93533855 23.8223869,7.78293631 23.8223869,7.62758436 L23.8223869,6.13797542 L24.7905004,6.13797542 L24.7905004,7.68756201 C24.7905004,7.80358436 24.8243844,7.91764022 24.8882798,8.01498101 L25.9096395,9.5694838 C26.0171001,9.73368492 26.1981373,9.83200894 26.3927282,9.83200894 L30.3571527,9.83200894 L30.3571527,10.8152492 L26.1739345,10.8152492 C25.9144801,10.8152492 25.6724517,10.6844782 25.529171,10.4652156 M28.1791879,9.75676837 L28.6632446,8.84916201 L30.3574432,8.84916201 L30.3574432,10.2105716 L28.1791879,10.2105716 L28.1791879,9.75676837 Z M30.9866201,8.84916201 L35.0526966,8.84916201 C35.2666497,8.84916201 35.439942,9.02516201 35.439942,9.2424581 L35.439942,11.4055866 C35.439942,11.6228827 35.2666497,11.7988827 35.0526966,11.7988827 L30.9866201,11.7988827 C30.772667,11.7988827 30.5993747,11.6228827 30.5993747,11.4055866 L30.5993747,9.2424581 C30.5993747,9.02516201 30.772667,8.84916201 30.9866201,8.84916201 M35.6820671,9.83240223 L36.6804341,9.83240223 C36.8819228,9.83240223 37.0434767,9.99395617 37.0434767,10.1954448 L37.0434767,11.2845724 C37.0434767,11.486061 36.8819228,11.647615 36.6804341,11.647615 L35.6820671,11.647615 L35.6820671,9.83240223 Z M27.9371595,14.7486034 L31.3255566,14.7486034 C31.4591563,14.7486034 31.567585,14.8587263 31.567585,14.9944134 L31.567585,18.4544358 L27.6951312,18.4544358 L27.6951312,14.9944134 C27.6951312,14.8587263 27.8035599,14.7486034 27.9371595,14.7486034 M34.278109,23.1061453 L32.7291275,23.1061453 C32.622635,23.1061453 32.5355048,23.0186369 32.5355048,22.9094972 L32.5355048,22.6145251 L31.7368112,22.6145251 L31.7368112,20.6480447 L32.5355048,20.6480447 L32.5355048,20.3530726 C32.5355048,20.243933 32.622635,20.1564246 32.7291275,20.1564246 L34.278109,20.1564246 C34.3855696,20.1564246 34.4717317,20.243933 34.4717317,20.3530726 L34.4717317,22.9094972 C34.4717317,23.0186369 34.3855696,23.1061453 34.278109,23.1061453 M27.0902539,14.7486034 L28.0886209,14.7486034 L28.0886209,16.5638161 L27.0902539,16.5638161 C26.8887653,16.5638161 26.7272113,16.4022621 26.7272113,16.2007735 L26.7272113,15.1116459 C26.7272113,14.9101573 26.8887653,14.7486034 27.0902539,14.7486034 M27.6951312,18.6815642 L31.567585,18.6815642 L31.567585,23.411933 C31.567585,23.534838 31.5395097,23.6547933 31.4862635,23.763933 L30.5994715,25.5642458 L28.6632446,25.5642458 L27.7764527,23.763933 C27.7232065,23.6547933 27.6951312,23.534838 27.6951312,23.411933 L27.6951312,18.6815642 Z M28.8570609,20.4022346 L30.4060425,20.4022346 C30.5125349,20.4022346 30.5996652,20.489743 30.5996652,20.5988827 L30.5996652,22.6636872 C30.5996652,22.7728268 30.5125349,22.8603352 30.4060425,22.8603352 L28.8570609,22.8603352 C28.7496003,22.8603352 28.6634383,22.7728268 28.6634383,22.6636872 L28.6634383,20.5988827 C28.6634383,20.489743 28.7496003,20.4022346 28.8570609,20.4022346 M29.147495,20.6480447 L30.478651,20.6480447 C30.6117666,20.6480447 30.7206793,20.7355531 30.7206793,20.8446927 L30.7206793,22.4178771 C30.7206793,22.5270168 30.6117666,22.6145251 30.478651,22.6145251 L29.147495,22.6145251 C29.0131692,22.6145251 28.9054666,22.5270168 28.9054666,22.4178771 L28.9054666,20.8446927 C28.9054666,20.7355531 29.0131692,20.6480447 29.147495,20.6480447 M28.6633414,38.8281564 L30.5898872,38.8281564 L30.5898872,25.8002235 L28.6633414,25.8002235 L28.6633414,38.8281564 Z M30.5994715,13.7058771 L30.5994715,14.5032849 L28.6632446,14.5032849 L28.6632446,13.7058771 C28.3805555,13.5888715 28.1791879,13.308648 28.1791879,12.9792626 L28.1791879,12.0451844 L31.0835283,12.0451844 L31.0835283,12.9792626 C31.0835283,13.308648 30.8821607,13.5888715 30.5994715,13.7058771 M28.6632446,39.0837989 L30.5994715,39.0837989 L30.6504911,39.0837989 L40.2077071,43.8141676 C40.3016141,43.8603799 40.2677301,44 40.1631739,44 L38.6442039,44 C38.6132242,44 38.5832127,43.9931173 38.5561055,43.979352 L30.5704759,40.0273352 L30.4542545,43.8092514 C30.4513502,43.9154413 30.3651881,44 30.2606318,44 L29.0020843,44 C28.8975281,44 28.811366,43.9154413 28.8084616,43.8092514 L28.6922403,40.0273352 L20.7066106,43.979352 C20.6795034,43.9931173 20.6494919,44 20.6185123,44 L19.0995423,44 C18.994986,44 18.9611021,43.8603799 19.0550091,43.8141676 L28.612225,39.0837989 L28.6632446,39.0837989 Z M26.1734505,11.0614525 L30.3576368,11.0614525 L30.3576368,11.7988827 L23.2691101,11.7988827 C23.0096557,11.7988827 22.7685954,11.6671285 22.6243465,11.4488492 L21.0482578,9.04777654 C20.964032,8.91798883 20.9185306,8.76656983 20.9185306,8.61121788 L20.9185306,6.16589944 L21.8866441,6.16589944 L21.8866441,7.13832402 C21.8866441,7.25532961 21.9205281,7.36938547 21.9834554,7.46574302 L23.6505468,10.0044693 C23.7580074,10.1686704 23.9390446,10.2669944 24.1336354,10.2669944 L25.1085257,10.2669944 L25.3273193,10.6012961 C25.5161014,10.8893855 25.8317064,11.0614525 26.1734505,11.0614525 Z" id="Mask" fill="#3B3E40" fill-rule="nonzero"></path>
    </g>
</svg>