<?xml version="1.0" encoding="UTF-8"?>
<svg width="20px" height="20px" viewBox="0 0 20 20" version="1.1" xmlns="http://www.w3.org/2000/svg" xmlns:xlink="http://www.w3.org/1999/xlink">
    <!-- Generator: Sketch 50.2 (55047) - http://www.bohemiancoding.com/sketch -->
    <title>button</title>
    <desc>Created with Sketch.</desc>
    <defs>
        <path d="M0,0 L44,0 C46.209139,-4.05812251e-16 48,1.790861 48,4 L48,44 C48,46.209139 46.209139,48 44,48 L0,48 L0,0 Z" id="path-1"></path>
        <path d="M17.1821629,16.6821629 L22,21.5 C21.3333333,22.1666667 20.6666667,22.1666667 20,21.5 C19.4342101,20.9342101 18.1481541,19.6481541 16.1418321,17.6418321 C14.655909,18.8059818 12.7840028,19.5 10.75,19.5 C5.91750844,19.5 2,15.5824916 2,10.75 C2,5.91750844 5.91750844,2 10.75,2 C15.5824916,2 19.5,5.91750844 19.5,10.75 C19.5,13.0390556 18.6210172,15.1228137 17.1821629,16.6821629 Z M10.75,18 C14.7540644,18 18,14.7540644 18,10.75 C18,6.74593556 14.7540644,3.5 10.75,3.5 C6.74593556,3.5 3.5,6.74593556 3.5,10.75 C3.5,14.7540644 6.74593556,18 10.75,18 Z" id="path-3"></path>
    </defs>
    <g id="symbols" stroke="none" stroke-width="1" fill="none" fill-rule="evenodd">
        <g id="base/nav/en" transform="translate(-1519.000000, -23.000000)">
            <g id="search" transform="translate(1271.000000, 9.000000)">
                <g id="icon/medium" transform="translate(234.000000, 0.000000)">
                    <g id="shape/right">
                        <mask id="mask-2" fill="white">
                            <use xlink:href="#path-1"></use>
                        </mask>
                        <g id="Mask"></g>
                        <g id="transparent" mask="url(#mask-2)">
                            <g transform="translate(-4.000000, 0.000000)" id="base">
                                <rect x="0" y="0" width="52" height="48"></rect>
                            </g>
                        </g>
                    </g>
                    <g id="search" transform="translate(12.000000, 12.000000)">
                        <mask id="mask-4" fill="white">
                            <use xlink:href="#path-3"></use>
                        </mask>
                        <g id="Mask"></g>
                        <g id="grey/9(dark)" mask="url(#mask-4)" fill="#3B3E40" fill-rule="evenodd">
                            <rect id="base" x="0" y="0" width="24" height="24"></rect>
                        </g>
                    </g>
                </g>
            </g>
        </g>
    </g>
</svg>