<?xml version="1.0" encoding="UTF-8"?>
<svg width="96px" height="96px" viewBox="0 0 96 96" version="1.1" xmlns="http://www.w3.org/2000/svg" xmlns:xlink="http://www.w3.org/1999/xlink">
    <!-- Generator: Sketch 50.2 (55047) - http://www.bohemiancoding.com/sketch -->
    <title>10-bit Dlog-M 色彩模式 </title>
    <desc>Created with Sketch.</desc>
    <defs>
        <rect id="path-1" x="0" y="0" width="96" height="96"></rect>
        <polygon id="path-3" points="1.4955 1.419 49.4955 1.419 49.4955 49.4187 1.4955 49.4187"></polygon>
        <polygon id="path-5" points="0 -0.0006 47.99985 -0.0006 47.99985 47.9994 0 47.9994"></polygon>
        <polygon id="path-7" points="1.48965 -0.0006 49.4895 -0.0006 49.4895 47.9994 1.48965 47.9994"></polygon>
    </defs>
    <g id="10-bit-Dlog-M-色彩模式-" stroke="none" stroke-width="1" fill="none" fill-rule="evenodd">
        <g id="Group">
            <mask id="mask-2" fill="white">
                <use xlink:href="#path-1"></use>
            </mask>
            <g id="Mask"></g>
            <g mask="url(#mask-2)">
                <g transform="translate(9.000000, 9.000000)">
                    <g id="Group-3" transform="translate(13.500000, -1.418550)">
                        <mask id="mask-4" fill="white">
                            <use xlink:href="#path-3"></use>
                        </mask>
                        <g id="Clip-2"></g>
                        <path d="M25.4955,1.4187 C12.24,1.4187 1.4955,12.1632 1.4955,25.4187 C1.4955,38.6727 12.24,49.4187 25.4955,49.4187 C38.7495,49.4187 49.4955,38.6727 49.4955,25.4187 C49.4955,12.1632 38.7495,1.4187 25.4955,1.4187 M25.4955,2.9187 C37.902,2.9187 47.9955,13.0122 47.9955,25.4187 C47.9955,37.8252 37.902,47.9187 25.4955,47.9187 C13.089,47.9187 2.9955,37.8252 2.9955,25.4187 C2.9955,13.0122 13.089,2.9187 25.4955,2.9187" id="Fill-1" fill="#707473" mask="url(#mask-4)"></path>
                    </g>
                    <g id="Group-6" transform="translate(0.000000, 31.581450)">
                        <mask id="mask-6" fill="white">
                            <use xlink:href="#path-5"></use>
                        </mask>
                        <g id="Clip-5"></g>
                        <path d="M23.99985,-0.0006 C10.74435,-0.0006 -0.00015,10.7454 -0.00015,23.9994 C-0.00015,37.2549 10.74435,47.9994 23.99985,47.9994 C37.25535,47.9994 47.99985,37.2549 47.99985,23.9994 C47.99985,10.7454 37.25535,-0.0006 23.99985,-0.0006 M23.99985,1.4994 C36.40635,1.4994 46.49985,11.5929 46.49985,23.9994 C46.49985,36.4059 36.40635,46.4994 23.99985,46.4994 C11.59335,46.4994 1.49985,36.4059 1.49985,23.9994 C1.49985,11.5929 11.59335,1.4994 23.99985,1.4994" id="Fill-4" fill="#707473" mask="url(#mask-6)"></path>
                    </g>
                    <g id="Group-9" transform="translate(28.500000, 31.581450)">
                        <mask id="mask-8" fill="white">
                            <use xlink:href="#path-7"></use>
                        </mask>
                        <g id="Clip-8"></g>
                        <path d="M25.48965,-0.0006 C12.23415,-0.0006 1.48965,10.7454 1.48965,23.9994 C1.48965,37.2549 12.23415,47.9994 25.48965,47.9994 C38.74515,47.9994 49.48965,37.2549 49.48965,23.9994 C49.48965,10.7454 38.74515,-0.0006 25.48965,-0.0006 M25.48965,1.4994 C37.89615,1.4994 47.98965,11.5929 47.98965,23.9994 C47.98965,36.4059 37.89615,46.4994 25.48965,46.4994 C13.08315,46.4994 2.98965,36.4059 2.98965,23.9994 C2.98965,11.5929 13.08315,1.4994 25.48965,1.4994" id="Fill-7" fill="#707473" mask="url(#mask-8)"></path>
                    </g>
                </g>
            </g>
        </g>
    </g>
</svg>