<?xml version="1.0" encoding="UTF-8"?>
<svg width="96px" height="96px" viewBox="0 0 96 96" version="1.1" xmlns="http://www.w3.org/2000/svg" xmlns:xlink="http://www.w3.org/1999/xlink">
    <!-- Generator: Sketch 50.2 (55047) - http://www.bohemiancoding.com/sketch -->
    <title>10-bit HDR 视频 10-bit HDR 视频 </title>
    <desc>Created with Sketch.</desc>
    <defs>
        <rect id="path-1" x="0" y="0" width="96" height="96"></rect>
        <polygon id="path-3" points="0.0006 0.15675 76.3521 0.15675 76.3521 52.5 0.0006 52.5"></polygon>
    </defs>
    <g id="10-bit-HDR-视频-10-bit-HDR-视频-" stroke="none" stroke-width="1" fill="none" fill-rule="evenodd">
        <g id="Group">
            <mask id="mask-2" fill="white">
                <use xlink:href="#path-1"></use>
            </mask>
            <g id="Mask"></g>
            <g mask="url(#mask-2)">
                <g transform="translate(0.000000, 22.500000)">
                    <polygon id="Fill-1" fill="#707473" points="21.2007 20.1723 23.6727 20.1723 23.6727 25.2543 28.8072 25.2543 28.8072 20.1723 31.2717 20.1723 31.2717 32.1723 28.8072 32.1723 28.8072 27.4593 23.6727 27.4593 23.6727 32.1723 21.2007 32.1723"></polygon>
                    <g id="Group-11" stroke-width="1" fill="none" transform="translate(0.000000, -0.156750)">
                        <path d="M37.34475,30.15825 C38.63025,30.15825 39.60975,29.79825 40.28175,29.08125 C40.90875,28.41525 41.22075,27.49875 41.22075,26.33325 C41.22075,25.16175 40.90875,24.24225 40.28175,23.57625 C39.60975,22.85925 38.63025,22.50075 37.34475,22.50075 L36.25125,22.50075 L36.25125,30.15825 L37.34475,30.15825 Z M33.77775,20.32875 L37.46475,20.32875 C39.31425,20.32875 40.82625,20.88525 42.00375,21.99975 C43.18875,23.12025 43.77975,24.56475 43.77975,26.33325 C43.77975,28.10175 43.19025,29.54325 42.01275,30.65775 C40.83525,31.77075 39.31875,32.32875 37.46475,32.32875 L33.77775,32.32875 L33.77775,20.32875 Z" id="Fill-2" fill="#707473"></path>
                        <path d="M50.23095,26.08305 C51.55845,26.08305 52.22145,25.48305 52.22145,24.28305 C52.22145,23.09355 51.55845,22.49955 50.23095,22.49955 L48.32745,22.49955 L48.32745,26.08305 L50.23095,26.08305 Z M45.85545,20.32905 L50.30145,20.32905 C51.62145,20.32905 52.67145,20.63805 53.45295,21.25905 C54.32595,21.94755 54.76245,22.95555 54.76245,24.28305 C54.76245,26.01105 53.98095,27.18255 52.41945,27.79755 L55.14945,32.32905 L52.33245,32.32905 L49.89495,28.16805 L48.32745,28.16805 L48.32745,32.32905 L45.85545,32.32905 L45.85545,20.32905 Z" id="Fill-4" fill="#707473"></path>
                        <g id="Group-8">
                            <mask id="mask-4" fill="white">
                                <use xlink:href="#path-3"></use>
                            </mask>
                            <g id="Clip-7"></g>
                            <path d="M3.6651,1.65675 C2.4711,1.65675 1.5006,2.62725 1.5006,3.82125 L1.5006,48.83475 C1.5006,50.02875 2.4711,51.00075 3.6651,51.00075 L72.6876,51.00075 C73.8816,51.00075 74.8521,50.02875 74.8521,48.83475 L74.8521,3.82125 C74.8521,2.62725 73.8816,1.65675 72.6876,1.65675 L3.6651,1.65675 Z M72.6876,52.50075 L3.6651,52.50075 C1.6431,52.50075 0.0006,50.85675 0.0006,48.83475 L0.0006,3.82125 C0.0006,1.80075 1.6431,0.15675 3.6651,0.15675 L72.6876,0.15675 C74.7081,0.15675 76.3521,1.80075 76.3521,3.82125 L76.3521,48.83475 C76.3521,50.85675 74.7081,52.50075 72.6876,52.50075 Z" id="Fill-6" fill="#707473" mask="url(#mask-4)"></path>
                        </g>
                        <path d="M76.3521,35.3979 L94.3281,47.7774 L94.3281,4.8804 L76.3521,17.2584 L76.3521,35.3979 Z M95.0781,49.9539 C94.9296,49.9539 94.7811,49.9104 94.6536,49.8219 L75.1776,36.4104 C74.9736,36.2694 74.8521,36.0384 74.8521,35.7924 L74.8521,16.8654 C74.8521,16.6179 74.9736,16.3869 75.1776,16.2459 L94.6536,2.8359 C94.8846,2.6784 95.1816,2.6604 95.4276,2.7909 C95.6751,2.9199 95.8281,3.1764 95.8281,3.4539 L95.8281,49.2039 C95.8281,49.4829 95.6751,49.7394 95.4276,49.8669 C95.3181,49.9269 95.1981,49.9539 95.0781,49.9539 Z" id="Fill-9" fill="#707473"></path>
                    </g>
                </g>
            </g>
        </g>
    </g>
</svg>