<?xml version="1.0" encoding="UTF-8"?>
<svg width="96px" height="96px" viewBox="0 0 96 96" version="1.1" xmlns="http://www.w3.org/2000/svg" xmlns:xlink="http://www.w3.org/1999/xlink">
    <!-- Generator: Sketch 50.2 (55047) - http://www.bohemiancoding.com/sketch -->
    <title>移动延时</title>
    <desc>Created with Sketch.</desc>
    <defs>
        <rect id="path-1" x="0" y="0" width="96" height="96"></rect>
        <polygon id="path-3" points="0 0.123 8.8785 0.123 8.8785 9 0 9"></polygon>
    </defs>
    <g id="移动延时" stroke="none" stroke-width="1" fill="none" fill-rule="evenodd">
        <g id="Group">
            <mask id="mask-2" fill="white">
                <use xlink:href="#path-1"></use>
            </mask>
            <g id="Mask"></g>
            <g mask="url(#mask-2)">
                <g transform="translate(4.500000, 4.500000)">
                    <path d="M42.06885,10.497 C23.01585,10.497 7.56885,25.944 7.56885,44.997 C7.56885,64.0515 23.01585,79.497 42.06885,79.497 C61.12335,79.497 76.56885,64.0515 76.56885,44.997 C76.56885,25.944 61.12335,10.497 42.06885,10.497 M42.06885,11.997 C60.26535,11.997 75.06885,26.8005 75.06885,44.997 C75.06885,63.1935 60.26535,77.997 42.06885,77.997 C23.87235,77.997 9.06885,63.1935 9.06885,44.997 C9.06885,26.8005 23.87235,11.997 42.06885,11.997" id="Fill-1" fill="#707473"></path>
                    <path d="M53.44335,58.25535 C53.05935,58.25535 52.67535,58.10835 52.38285,57.81585 L40.37085,45.81735 L40.37085,28.02735 C40.37085,27.19785 41.04135,26.52735 41.87085,26.52735 C42.70035,26.52735 43.37085,27.19785 43.37085,28.02735 L43.37085,44.57535 L54.50385,55.69485 C55.09035,56.27985 55.09035,57.22935 54.50385,57.81585 C54.21285,58.10835 53.82735,58.25535 53.44335,58.25535" id="Fill-3" fill="#707473"></path>
                    <path d="M81.8232,6.19335 C81.6312,6.19335 81.4392,6.11985 81.2922,5.97435 C80.9997,5.68035 80.9997,5.20635 81.2922,4.91235 L85.9842,0.22035 C86.2782,-0.07365 86.7522,-0.07365 87.0447,0.22035 C87.3387,0.51285 87.3387,0.98685 87.0447,1.28085 L82.3542,5.97435 C82.2072,6.11985 82.0152,6.19335 81.8232,6.19335" id="Fill-5" fill="#707473"></path>
                    <path d="M78.1977,21.5595 L78.1977,9.126 L65.9577,9.126 C71.0067,12.183 75.2217,16.4565 78.1977,21.5595" id="Fill-7" fill="#707473"></path>
                    <g id="Group-11" stroke-width="1" fill="none" transform="translate(0.000000, 78.065850)">
                        <mask id="mask-4" fill="white">
                            <use xlink:href="#path-3"></use>
                        </mask>
                        <g id="Clip-10"></g>
                        <path d="M0.75,9 C0.558,9 0.366,8.9265 0.219,8.781 C-0.0735,8.487 -0.0735,8.013 0.219,7.719 L7.5975,0.3435 C7.8915,0.0495 8.3655,0.0495 8.658,0.3435 C8.952,0.636 8.952,1.11 8.658,1.404 L1.281,8.781 C1.134,8.9265 0.942,9 0.75,9" id="Fill-9" fill="#707473" mask="url(#mask-4)"></path>
                    </g>
                </g>
            </g>
        </g>
    </g>
</svg>